<svg width="96" height="96" viewBox="0 0 96 96" fill="none" xmlns="http://www.w3.org/2000/svg">
  <rect width="96" height="96" rx="12" fill="#ef4444"/>
  <path d="M48 18c-3.3 0-6 2.7-6 6 0 1.2 0.4 2.3 1 3.2l-14.8 14.8c-0.9-0.6-2-1-3.2-1-3.3 0-6 2.7-6 6s2.7 6 6 6c1.2 0 2.3-0.4 3.2-1l14.8 14.8c-0.6 0.9-1 2-1 3.2 0 3.3 2.7 6 6 6s6-2.7 6-6c0-1.2-0.4-2.3-1-3.2l14.8-14.8c0.9 0.6 2 1 3.2 1 3.3 0 6-2.7 6-6s-2.7-6-6-6c-1.2 0-2.3 0.4-3.2 1l-14.8-14.8c0.6-0.9 1-2 1-3.2 0-3.3-2.7-6-6-6z" fill="white"/>
</svg>
