<svg width="96" height="96" viewBox="0 0 96 96" fill="none" xmlns="http://www.w3.org/2000/svg">
  <rect width="96" height="96" rx="12" fill="#3b82f6"/>
  <path d="M48 20c-2.4 0-4.4 2-4.4 4.4v3.3c-8.2 1.2-14.6 7.6-15.8 15.8h-3.3c-2.4 0-4.4 2-4.4 4.4s2 4.4 4.4 4.4h3.3c1.2 8.2 7.6 14.6 15.8 15.8v3.3c0 2.4 2 4.4 4.4 4.4s4.4-2 4.4-4.4v-3.3c8.2-1.2 14.6-7.6 15.8-15.8h3.3c2.4 0 4.4-2 4.4-4.4s-2-4.4-4.4-4.4h-3.3c-1.2-8.2-7.6-14.6-15.8-15.8v-3.3c0-2.4-2-4.4-4.4-4.4zm0 13.2c6.6 0 12 5.4 12 12s-5.4 12-12 12-12-5.4-12-12 5.4-12 12-12z" fill="white"/>
</svg>
